<mxfile host="drawio-plugin" modified="2022-04-22T01:43:42.438Z" agent="5.0 (Macintosh; Intel Mac OS X 10_16_0) AppleWebKit/537.36 (KHTML, like Gecko) Chrome/81.0.4044.113 Safari/537.36" etag="Nr2fccNHUSTXu4gB8xgO" version="13.7.9" type="embed" pages="4"><diagram id="9zYyTa4Tk55Lgc3Q3DuZ" name="Pieces"><mxGraphModel dx="1729" dy="428" grid="1" gridSize="10" guides="1" tooltips="1" connect="1" arrows="1" fold="1" page="1" pageScale="1" pageWidth="850" pageHeight="1100" math="0" shadow="0"><root><mxCell id="0"/><mxCell id="1" parent="0"/><mxCell id="xREvn7PkoQ260bM7epG4-1" value="Coord" style="swimlane;fontStyle=1;align=center;verticalAlign=top;childLayout=stackLayout;horizontal=1;startSize=26;horizontalStack=0;resizeParent=1;resizeParentMax=0;resizeLast=0;collapsible=1;marginBottom=0;" parent="1" vertex="1"><mxGeometry x="520" y="190" width="210" height="86" as="geometry"/></mxCell><mxCell id="xREvn7PkoQ260bM7epG4-2" value="+ position: type" style="text;strokeColor=none;fillColor=none;align=left;verticalAlign=top;spacingLeft=4;spacingRight=4;overflow=hidden;rotatable=0;points=[[0,0.5],[1,0.5]];portConstraint=eastwest;" parent="xREvn7PkoQ260bM7epG4-1" vertex="1"><mxGeometry y="26" width="210" height="26" as="geometry"/></mxCell><mxCell id="xREvn7PkoQ260bM7epG4-3" value="" style="line;strokeWidth=1;fillColor=none;align=left;verticalAlign=middle;spacingTop=-1;spacingLeft=3;spacingRight=3;rotatable=0;labelPosition=right;points=[];portConstraint=eastwest;" parent="xREvn7PkoQ260bM7epG4-1" vertex="1"><mxGeometry y="52" width="210" height="8" as="geometry"/></mxCell><mxCell id="xREvn7PkoQ260bM7epG4-4" value="+ getPrintableCoord(type): String" style="text;strokeColor=none;fillColor=none;align=left;verticalAlign=top;spacingLeft=4;spacingRight=4;overflow=hidden;rotatable=0;points=[[0,0.5],[1,0.5]];portConstraint=eastwest;" parent="xREvn7PkoQ260bM7epG4-1" vertex="1"><mxGeometry y="60" width="210" height="26" as="geometry"/></mxCell><mxCell id="xREvn7PkoQ260bM7epG4-5" value="&lt;p style=&quot;margin: 0px ; margin-top: 4px ; text-align: center&quot;&gt;&lt;i&gt;&amp;lt;&amp;lt;abstract&amp;gt;&amp;gt;&lt;/i&gt;&lt;br&gt;&lt;b&gt;Piece&lt;/b&gt;&lt;/p&gt;&lt;hr size=&quot;1&quot;&gt;&lt;p style=&quot;margin: 0px ; margin-left: 4px&quot;&gt;- promotedFrom: Piece&lt;/p&gt;&lt;p style=&quot;margin: 0px ; margin-left: 4px&quot;&gt;- possiblePromotions: List&amp;lt;Piece&amp;gt;&lt;br&gt;&lt;/p&gt;&lt;hr size=&quot;1&quot;&gt;&lt;p style=&quot;margin: 0px ; margin-left: 4px&quot;&gt;+ possibleMovements(Type): Type&lt;br&gt;+ position(Type, Type): Type&lt;/p&gt;" style="verticalAlign=top;align=left;overflow=fill;fontSize=12;fontFamily=Helvetica;html=1;" parent="1" vertex="1"><mxGeometry x="230" y="90" width="190" height="140" as="geometry"/></mxCell><mxCell id="xREvn7PkoQ260bM7epG4-10" value="&lt;p style=&quot;margin: 0px ; margin-top: 4px ; text-align: center&quot;&gt;&lt;i&gt;&amp;lt;&amp;lt;enum&amp;gt;&amp;gt;&lt;/i&gt;&lt;br&gt;&lt;b&gt;Color&lt;/b&gt;&lt;/p&gt;&lt;hr size=&quot;1&quot;&gt;&lt;p style=&quot;margin: 0px ; margin-left: 4px&quot;&gt;+ black&lt;br&gt;+ white&lt;br&gt;&lt;/p&gt;&lt;hr size=&quot;1&quot;&gt;" style="verticalAlign=top;align=left;overflow=fill;fontSize=12;fontFamily=Helvetica;html=1;" parent="1" vertex="1"><mxGeometry x="520" y="60" width="190" height="90" as="geometry"/></mxCell><mxCell id="xREvn7PkoQ260bM7epG4-11" value="" style="endArrow=open;endFill=1;endSize=12;html=1;exitX=1;exitY=0.25;exitDx=0;exitDy=0;entryX=0;entryY=0.5;entryDx=0;entryDy=0;" parent="1" source="xREvn7PkoQ260bM7epG4-5" target="xREvn7PkoQ260bM7epG4-10" edge="1"><mxGeometry width="160" relative="1" as="geometry"><mxPoint x="440" y="180" as="sourcePoint"/><mxPoint x="600" y="180" as="targetPoint"/></mxGeometry></mxCell><mxCell id="xREvn7PkoQ260bM7epG4-12" value="" style="endArrow=open;endFill=1;endSize=12;html=1;entryX=0;entryY=0.5;entryDx=0;entryDy=0;exitX=1;exitY=0.75;exitDx=0;exitDy=0;" parent="1" source="xREvn7PkoQ260bM7epG4-5" target="xREvn7PkoQ260bM7epG4-2" edge="1"><mxGeometry width="160" relative="1" as="geometry"><mxPoint x="340" y="250" as="sourcePoint"/><mxPoint x="485" y="280" as="targetPoint"/></mxGeometry></mxCell><mxCell id="xREvn7PkoQ260bM7epG4-13" value="Extends" style="endArrow=block;endSize=16;endFill=0;html=1;" parent="1" edge="1"><mxGeometry width="160" relative="1" as="geometry"><mxPoint x="324.5" y="230" as="sourcePoint"/><mxPoint x="324.5" y="340" as="targetPoint"/></mxGeometry></mxCell><mxCell id="xREvn7PkoQ260bM7epG4-14" value="Pawn" style="swimlane;fontStyle=1;align=center;verticalAlign=top;childLayout=stackLayout;horizontal=1;startSize=26;horizontalStack=0;resizeParent=1;resizeParentMax=0;resizeLast=0;collapsible=1;marginBottom=0;" parent="1" vertex="1"><mxGeometry x="-110" y="360" width="160" height="86" as="geometry"><mxRectangle x="-110" y="360" width="60" height="26" as="alternateBounds"/></mxGeometry></mxCell><mxCell id="xREvn7PkoQ260bM7epG4-15" value="+ field: type" style="text;strokeColor=none;fillColor=none;align=left;verticalAlign=top;spacingLeft=4;spacingRight=4;overflow=hidden;rotatable=0;points=[[0,0.5],[1,0.5]];portConstraint=eastwest;" parent="xREvn7PkoQ260bM7epG4-14" vertex="1"><mxGeometry y="26" width="160" height="26" as="geometry"/></mxCell><mxCell id="xREvn7PkoQ260bM7epG4-16" value="" style="line;strokeWidth=1;fillColor=none;align=left;verticalAlign=middle;spacingTop=-1;spacingLeft=3;spacingRight=3;rotatable=0;labelPosition=right;points=[];portConstraint=eastwest;" parent="xREvn7PkoQ260bM7epG4-14" vertex="1"><mxGeometry y="52" width="160" height="8" as="geometry"/></mxCell><mxCell id="xREvn7PkoQ260bM7epG4-17" value="+ method(type): type" style="text;strokeColor=none;fillColor=none;align=left;verticalAlign=top;spacingLeft=4;spacingRight=4;overflow=hidden;rotatable=0;points=[[0,0.5],[1,0.5]];portConstraint=eastwest;" parent="xREvn7PkoQ260bM7epG4-14" vertex="1"><mxGeometry y="60" width="160" height="26" as="geometry"/></mxCell><mxCell id="xREvn7PkoQ260bM7epG4-18" value="Silver" style="swimlane;fontStyle=1;align=center;verticalAlign=top;childLayout=stackLayout;horizontal=1;startSize=26;horizontalStack=0;resizeParent=1;resizeParentMax=0;resizeLast=0;collapsible=1;marginBottom=0;" parent="1" vertex="1"><mxGeometry x="430" y="360" width="160" height="86" as="geometry"/></mxCell><mxCell id="xREvn7PkoQ260bM7epG4-19" value="+ field: type" style="text;strokeColor=none;fillColor=none;align=left;verticalAlign=top;spacingLeft=4;spacingRight=4;overflow=hidden;rotatable=0;points=[[0,0.5],[1,0.5]];portConstraint=eastwest;" parent="xREvn7PkoQ260bM7epG4-18" vertex="1"><mxGeometry y="26" width="160" height="26" as="geometry"/></mxCell><mxCell id="xREvn7PkoQ260bM7epG4-20" value="" style="line;strokeWidth=1;fillColor=none;align=left;verticalAlign=middle;spacingTop=-1;spacingLeft=3;spacingRight=3;rotatable=0;labelPosition=right;points=[];portConstraint=eastwest;" parent="xREvn7PkoQ260bM7epG4-18" vertex="1"><mxGeometry y="52" width="160" height="8" as="geometry"/></mxCell><mxCell id="xREvn7PkoQ260bM7epG4-21" value="+ method(type): type" style="text;strokeColor=none;fillColor=none;align=left;verticalAlign=top;spacingLeft=4;spacingRight=4;overflow=hidden;rotatable=0;points=[[0,0.5],[1,0.5]];portConstraint=eastwest;" parent="xREvn7PkoQ260bM7epG4-18" vertex="1"><mxGeometry y="60" width="160" height="26" as="geometry"/></mxCell><mxCell id="xREvn7PkoQ260bM7epG4-22" value="Lance" style="swimlane;fontStyle=1;align=center;verticalAlign=top;childLayout=stackLayout;horizontal=1;startSize=26;horizontalStack=0;resizeParent=1;resizeParentMax=0;resizeLast=0;collapsible=1;marginBottom=0;" parent="1" vertex="1"><mxGeometry x="70" y="360" width="160" height="86" as="geometry"/></mxCell><mxCell id="xREvn7PkoQ260bM7epG4-23" value="+ field: type" style="text;strokeColor=none;fillColor=none;align=left;verticalAlign=top;spacingLeft=4;spacingRight=4;overflow=hidden;rotatable=0;points=[[0,0.5],[1,0.5]];portConstraint=eastwest;" parent="xREvn7PkoQ260bM7epG4-22" vertex="1"><mxGeometry y="26" width="160" height="26" as="geometry"/></mxCell><mxCell id="xREvn7PkoQ260bM7epG4-24" value="" style="line;strokeWidth=1;fillColor=none;align=left;verticalAlign=middle;spacingTop=-1;spacingLeft=3;spacingRight=3;rotatable=0;labelPosition=right;points=[];portConstraint=eastwest;" parent="xREvn7PkoQ260bM7epG4-22" vertex="1"><mxGeometry y="52" width="160" height="8" as="geometry"/></mxCell><mxCell id="xREvn7PkoQ260bM7epG4-25" value="+ method(type): type" style="text;strokeColor=none;fillColor=none;align=left;verticalAlign=top;spacingLeft=4;spacingRight=4;overflow=hidden;rotatable=0;points=[[0,0.5],[1,0.5]];portConstraint=eastwest;" parent="xREvn7PkoQ260bM7epG4-22" vertex="1"><mxGeometry y="60" width="160" height="26" as="geometry"/></mxCell><mxCell id="xREvn7PkoQ260bM7epG4-26" value="Knight" style="swimlane;fontStyle=1;align=center;verticalAlign=top;childLayout=stackLayout;horizontal=1;startSize=26;horizontalStack=0;resizeParent=1;resizeParentMax=0;resizeLast=0;collapsible=1;marginBottom=0;" parent="1" vertex="1"><mxGeometry x="250" y="360" width="160" height="86" as="geometry"/></mxCell><mxCell id="xREvn7PkoQ260bM7epG4-27" value="+ field: type" style="text;strokeColor=none;fillColor=none;align=left;verticalAlign=top;spacingLeft=4;spacingRight=4;overflow=hidden;rotatable=0;points=[[0,0.5],[1,0.5]];portConstraint=eastwest;" parent="xREvn7PkoQ260bM7epG4-26" vertex="1"><mxGeometry y="26" width="160" height="26" as="geometry"/></mxCell><mxCell id="xREvn7PkoQ260bM7epG4-28" value="" style="line;strokeWidth=1;fillColor=none;align=left;verticalAlign=middle;spacingTop=-1;spacingLeft=3;spacingRight=3;rotatable=0;labelPosition=right;points=[];portConstraint=eastwest;" parent="xREvn7PkoQ260bM7epG4-26" vertex="1"><mxGeometry y="52" width="160" height="8" as="geometry"/></mxCell><mxCell id="xREvn7PkoQ260bM7epG4-29" value="+ method(type): type" style="text;strokeColor=none;fillColor=none;align=left;verticalAlign=top;spacingLeft=4;spacingRight=4;overflow=hidden;rotatable=0;points=[[0,0.5],[1,0.5]];portConstraint=eastwest;" parent="xREvn7PkoQ260bM7epG4-26" vertex="1"><mxGeometry y="60" width="160" height="26" as="geometry"/></mxCell><mxCell id="xREvn7PkoQ260bM7epG4-30" value="Rook" style="swimlane;fontStyle=1;align=center;verticalAlign=top;childLayout=stackLayout;horizontal=1;startSize=26;horizontalStack=0;resizeParent=1;resizeParentMax=0;resizeLast=0;collapsible=1;marginBottom=0;" parent="1" vertex="1"><mxGeometry x="390" y="470" width="160" height="86" as="geometry"/></mxCell><mxCell id="xREvn7PkoQ260bM7epG4-31" value="+ field: type" style="text;strokeColor=none;fillColor=none;align=left;verticalAlign=top;spacingLeft=4;spacingRight=4;overflow=hidden;rotatable=0;points=[[0,0.5],[1,0.5]];portConstraint=eastwest;" parent="xREvn7PkoQ260bM7epG4-30" vertex="1"><mxGeometry y="26" width="160" height="26" as="geometry"/></mxCell><mxCell id="xREvn7PkoQ260bM7epG4-32" value="" style="line;strokeWidth=1;fillColor=none;align=left;verticalAlign=middle;spacingTop=-1;spacingLeft=3;spacingRight=3;rotatable=0;labelPosition=right;points=[];portConstraint=eastwest;" parent="xREvn7PkoQ260bM7epG4-30" vertex="1"><mxGeometry y="52" width="160" height="8" as="geometry"/></mxCell><mxCell id="xREvn7PkoQ260bM7epG4-33" value="+ method(type): type" style="text;strokeColor=none;fillColor=none;align=left;verticalAlign=top;spacingLeft=4;spacingRight=4;overflow=hidden;rotatable=0;points=[[0,0.5],[1,0.5]];portConstraint=eastwest;" parent="xREvn7PkoQ260bM7epG4-30" vertex="1"><mxGeometry y="60" width="160" height="26" as="geometry"/></mxCell><mxCell id="xREvn7PkoQ260bM7epG4-34" value="Gold" style="swimlane;fontStyle=1;align=center;verticalAlign=top;childLayout=stackLayout;horizontal=1;startSize=26;horizontalStack=0;resizeParent=1;resizeParentMax=0;resizeLast=0;collapsible=1;marginBottom=0;" parent="1" vertex="1"><mxGeometry x="610" y="360" width="160" height="86" as="geometry"/></mxCell><mxCell id="xREvn7PkoQ260bM7epG4-35" value="+ field: type" style="text;strokeColor=none;fillColor=none;align=left;verticalAlign=top;spacingLeft=4;spacingRight=4;overflow=hidden;rotatable=0;points=[[0,0.5],[1,0.5]];portConstraint=eastwest;" parent="xREvn7PkoQ260bM7epG4-34" vertex="1"><mxGeometry y="26" width="160" height="26" as="geometry"/></mxCell><mxCell id="xREvn7PkoQ260bM7epG4-36" value="" style="line;strokeWidth=1;fillColor=none;align=left;verticalAlign=middle;spacingTop=-1;spacingLeft=3;spacingRight=3;rotatable=0;labelPosition=right;points=[];portConstraint=eastwest;" parent="xREvn7PkoQ260bM7epG4-34" vertex="1"><mxGeometry y="52" width="160" height="8" as="geometry"/></mxCell><mxCell id="xREvn7PkoQ260bM7epG4-37" value="+ method(type): type" style="text;strokeColor=none;fillColor=none;align=left;verticalAlign=top;spacingLeft=4;spacingRight=4;overflow=hidden;rotatable=0;points=[[0,0.5],[1,0.5]];portConstraint=eastwest;" parent="xREvn7PkoQ260bM7epG4-34" vertex="1"><mxGeometry y="60" width="160" height="26" as="geometry"/></mxCell><mxCell id="xREvn7PkoQ260bM7epG4-38" value="Rook" style="swimlane;fontStyle=1;align=center;verticalAlign=top;childLayout=stackLayout;horizontal=1;startSize=26;horizontalStack=0;resizeParent=1;resizeParentMax=0;resizeLast=0;collapsible=1;marginBottom=0;" parent="1" vertex="1"><mxGeometry x="210" y="470" width="160" height="86" as="geometry"/></mxCell><mxCell id="xREvn7PkoQ260bM7epG4-39" value="+ field: type" style="text;strokeColor=none;fillColor=none;align=left;verticalAlign=top;spacingLeft=4;spacingRight=4;overflow=hidden;rotatable=0;points=[[0,0.5],[1,0.5]];portConstraint=eastwest;" parent="xREvn7PkoQ260bM7epG4-38" vertex="1"><mxGeometry y="26" width="160" height="26" as="geometry"/></mxCell><mxCell id="xREvn7PkoQ260bM7epG4-40" value="" style="line;strokeWidth=1;fillColor=none;align=left;verticalAlign=middle;spacingTop=-1;spacingLeft=3;spacingRight=3;rotatable=0;labelPosition=right;points=[];portConstraint=eastwest;" parent="xREvn7PkoQ260bM7epG4-38" vertex="1"><mxGeometry y="52" width="160" height="8" as="geometry"/></mxCell><mxCell id="xREvn7PkoQ260bM7epG4-41" value="+ method(type): type" style="text;strokeColor=none;fillColor=none;align=left;verticalAlign=top;spacingLeft=4;spacingRight=4;overflow=hidden;rotatable=0;points=[[0,0.5],[1,0.5]];portConstraint=eastwest;" parent="xREvn7PkoQ260bM7epG4-38" vertex="1"><mxGeometry y="60" width="160" height="26" as="geometry"/></mxCell><mxCell id="xREvn7PkoQ260bM7epG4-42" value="Bishop" style="swimlane;fontStyle=1;align=center;verticalAlign=top;childLayout=stackLayout;horizontal=1;startSize=26;horizontalStack=0;resizeParent=1;resizeParentMax=0;resizeLast=0;collapsible=1;marginBottom=0;" parent="1" vertex="1"><mxGeometry x="10" y="470" width="160" height="86" as="geometry"/></mxCell><mxCell id="xREvn7PkoQ260bM7epG4-43" value="+ field: type" style="text;strokeColor=none;fillColor=none;align=left;verticalAlign=top;spacingLeft=4;spacingRight=4;overflow=hidden;rotatable=0;points=[[0,0.5],[1,0.5]];portConstraint=eastwest;" parent="xREvn7PkoQ260bM7epG4-42" vertex="1"><mxGeometry y="26" width="160" height="26" as="geometry"/></mxCell><mxCell id="xREvn7PkoQ260bM7epG4-44" value="" style="line;strokeWidth=1;fillColor=none;align=left;verticalAlign=middle;spacingTop=-1;spacingLeft=3;spacingRight=3;rotatable=0;labelPosition=right;points=[];portConstraint=eastwest;" parent="xREvn7PkoQ260bM7epG4-42" vertex="1"><mxGeometry y="52" width="160" height="8" as="geometry"/></mxCell><mxCell id="xREvn7PkoQ260bM7epG4-45" value="+ method(type): type" style="text;strokeColor=none;fillColor=none;align=left;verticalAlign=top;spacingLeft=4;spacingRight=4;overflow=hidden;rotatable=0;points=[[0,0.5],[1,0.5]];portConstraint=eastwest;" parent="xREvn7PkoQ260bM7epG4-42" vertex="1"><mxGeometry y="60" width="160" height="26" as="geometry"/></mxCell><mxCell id="xREvn7PkoQ260bM7epG4-47" value="King" style="swimlane;fontStyle=1;align=center;verticalAlign=top;childLayout=stackLayout;horizontal=1;startSize=26;horizontalStack=0;resizeParent=1;resizeParentMax=0;resizeLast=0;collapsible=1;marginBottom=0;" parent="1" vertex="1"><mxGeometry x="570" y="470" width="160" height="86" as="geometry"/></mxCell><mxCell id="xREvn7PkoQ260bM7epG4-48" value="+ field: type" style="text;strokeColor=none;fillColor=none;align=left;verticalAlign=top;spacingLeft=4;spacingRight=4;overflow=hidden;rotatable=0;points=[[0,0.5],[1,0.5]];portConstraint=eastwest;" parent="xREvn7PkoQ260bM7epG4-47" vertex="1"><mxGeometry y="26" width="160" height="26" as="geometry"/></mxCell><mxCell id="xREvn7PkoQ260bM7epG4-49" value="" style="line;strokeWidth=1;fillColor=none;align=left;verticalAlign=middle;spacingTop=-1;spacingLeft=3;spacingRight=3;rotatable=0;labelPosition=right;points=[];portConstraint=eastwest;" parent="xREvn7PkoQ260bM7epG4-47" vertex="1"><mxGeometry y="52" width="160" height="8" as="geometry"/></mxCell><mxCell id="xREvn7PkoQ260bM7epG4-50" value="+ method(type): type" style="text;strokeColor=none;fillColor=none;align=left;verticalAlign=top;spacingLeft=4;spacingRight=4;overflow=hidden;rotatable=0;points=[[0,0.5],[1,0.5]];portConstraint=eastwest;" parent="xREvn7PkoQ260bM7epG4-47" vertex="1"><mxGeometry y="60" width="160" height="26" as="geometry"/></mxCell></root></mxGraphModel></diagram><diagram id="z-Act-zVfS9kfbsuveoO" name="PieceMovementHighlight"><mxGraphModel dx="879" dy="428" grid="1" gridSize="10" guides="1" tooltips="1" connect="1" arrows="1" fold="1" page="1" pageScale="1" pageWidth="850" pageHeight="1100" math="0" shadow="0"><root><mxCell id="k3EQsuR-YHrpSeNEuodq-0"/><mxCell id="k3EQsuR-YHrpSeNEuodq-1" parent="k3EQsuR-YHrpSeNEuodq-0"/><mxCell id="k3EQsuR-YHrpSeNEuodq-18" value="&lt;div&gt;:Piece&lt;/div&gt;" style="shape=umlLifeline;perimeter=lifelinePerimeter;whiteSpace=wrap;html=1;container=1;collapsible=0;recursiveResize=0;outlineConnect=0;" parent="k3EQsuR-YHrpSeNEuodq-1" vertex="1"><mxGeometry x="40" y="520" width="100" height="300" as="geometry"/></mxCell><mxCell id="k3EQsuR-YHrpSeNEuodq-19" value="&lt;div&gt;:EmptyCell&lt;/div&gt;" style="shape=umlLifeline;perimeter=lifelinePerimeter;whiteSpace=wrap;html=1;container=1;collapsible=0;recursiveResize=0;outlineConnect=0;" parent="k3EQsuR-YHrpSeNEuodq-1" vertex="1"><mxGeometry x="245" y="520" width="100" height="300" as="geometry"/></mxCell><mxCell id="k3EQsuR-YHrpSeNEuodq-20" value="&lt;div&gt;:Game&lt;/div&gt;" style="shape=umlLifeline;perimeter=lifelinePerimeter;whiteSpace=wrap;html=1;container=1;collapsible=0;recursiveResize=0;outlineConnect=0;" parent="k3EQsuR-YHrpSeNEuodq-1" vertex="1"><mxGeometry x="450" y="520" width="100" height="300" as="geometry"/></mxCell><mxCell id="k3EQsuR-YHrpSeNEuodq-21" value="&lt;div&gt;:Game&lt;/div&gt;" style="shape=umlLifeline;perimeter=lifelinePerimeter;whiteSpace=wrap;html=1;container=1;collapsible=0;recursiveResize=0;outlineConnect=0;" parent="k3EQsuR-YHrpSeNEuodq-1" vertex="1"><mxGeometry x="650" y="510" width="100" height="300" as="geometry"/></mxCell><mxCell id="k3EQsuR-YHrpSeNEuodq-26" value="" style="endArrow=classic;html=1;" parent="k3EQsuR-YHrpSeNEuodq-1" source="k3EQsuR-YHrpSeNEuodq-18" target="k3EQsuR-YHrpSeNEuodq-20" edge="1"><mxGeometry width="50" height="50" relative="1" as="geometry"><mxPoint x="170" y="720" as="sourcePoint"/><mxPoint x="220" y="670" as="targetPoint"/><Array as="points"><mxPoint x="250" y="630"/></Array></mxGeometry></mxCell><mxCell id="k3EQsuR-YHrpSeNEuodq-30" value="&lt;div&gt;onClick&lt;/div&gt;" style="text;html=1;strokeColor=none;fillColor=none;align=center;verticalAlign=middle;whiteSpace=wrap;rounded=0;" parent="k3EQsuR-YHrpSeNEuodq-1" vertex="1"><mxGeometry x="160" y="610" width="40" height="20" as="geometry"/></mxCell><mxCell id="k3EQsuR-YHrpSeNEuodq-33" value="highlighCells" style="text;html=1;strokeColor=none;fillColor=none;align=center;verticalAlign=middle;whiteSpace=wrap;rounded=0;" parent="k3EQsuR-YHrpSeNEuodq-1" vertex="1"><mxGeometry x="580" y="740" width="40" height="20" as="geometry"/></mxCell><mxCell id="k3EQsuR-YHrpSeNEuodq-34" value="" style="endArrow=classic;html=1;" parent="k3EQsuR-YHrpSeNEuodq-1" source="k3EQsuR-YHrpSeNEuodq-20" target="k3EQsuR-YHrpSeNEuodq-21" edge="1"><mxGeometry width="50" height="50" relative="1" as="geometry"><mxPoint x="650" y="930" as="sourcePoint"/><mxPoint x="700" y="800" as="targetPoint"/><Array as="points"><mxPoint x="660" y="690"/></Array></mxGeometry></mxCell><mxCell id="k3EQsuR-YHrpSeNEuodq-35" value="" style="endArrow=classic;html=1;" parent="k3EQsuR-YHrpSeNEuodq-1" edge="1"><mxGeometry width="50" height="50" relative="1" as="geometry"><mxPoint x="500" y="770" as="sourcePoint"/><mxPoint x="700" y="770" as="targetPoint"/><Array as="points"><mxPoint x="660.5" y="770"/></Array></mxGeometry></mxCell><mxCell id="k3EQsuR-YHrpSeNEuodq-37" value="&lt;div&gt;removePreviousHighlight&lt;/div&gt;" style="text;html=1;strokeColor=none;fillColor=none;align=center;verticalAlign=middle;whiteSpace=wrap;rounded=0;" parent="k3EQsuR-YHrpSeNEuodq-1" vertex="1"><mxGeometry x="580" y="660" width="40" height="20" as="geometry"/></mxCell><mxCell id="k3EQsuR-YHrpSeNEuodq-38" value="&lt;div&gt;:Piece&lt;/div&gt;" style="shape=umlLifeline;perimeter=lifelinePerimeter;whiteSpace=wrap;html=1;container=1;collapsible=0;recursiveResize=0;outlineConnect=0;" parent="k3EQsuR-YHrpSeNEuodq-1" vertex="1"><mxGeometry x="40" y="880" width="100" height="300" as="geometry"/></mxCell><mxCell id="k3EQsuR-YHrpSeNEuodq-39" value="&lt;div&gt;:EmptyCell&lt;/div&gt;" style="shape=umlLifeline;perimeter=lifelinePerimeter;whiteSpace=wrap;html=1;container=1;collapsible=0;recursiveResize=0;outlineConnect=0;" parent="k3EQsuR-YHrpSeNEuodq-1" vertex="1"><mxGeometry x="245" y="880" width="100" height="300" as="geometry"/></mxCell><mxCell id="k3EQsuR-YHrpSeNEuodq-40" value="&lt;div&gt;:Game&lt;/div&gt;" style="shape=umlLifeline;perimeter=lifelinePerimeter;whiteSpace=wrap;html=1;container=1;collapsible=0;recursiveResize=0;outlineConnect=0;" parent="k3EQsuR-YHrpSeNEuodq-1" vertex="1"><mxGeometry x="450" y="880" width="100" height="300" as="geometry"/></mxCell><mxCell id="k3EQsuR-YHrpSeNEuodq-41" value="&lt;div&gt;:Game&lt;/div&gt;" style="shape=umlLifeline;perimeter=lifelinePerimeter;whiteSpace=wrap;html=1;container=1;collapsible=0;recursiveResize=0;outlineConnect=0;" parent="k3EQsuR-YHrpSeNEuodq-1" vertex="1"><mxGeometry x="650" y="870" width="100" height="300" as="geometry"/></mxCell><mxCell id="k3EQsuR-YHrpSeNEuodq-42" value="" style="endArrow=classic;html=1;" parent="k3EQsuR-YHrpSeNEuodq-1" target="k3EQsuR-YHrpSeNEuodq-40" edge="1"><mxGeometry width="50" height="50" relative="1" as="geometry"><mxPoint x="300" y="990" as="sourcePoint"/><mxPoint x="220" y="1030" as="targetPoint"/><Array as="points"/></mxGeometry></mxCell><mxCell id="k3EQsuR-YHrpSeNEuodq-43" value="&lt;div&gt;onClick&lt;/div&gt;" style="text;html=1;strokeColor=none;fillColor=none;align=center;verticalAlign=middle;whiteSpace=wrap;rounded=0;" parent="k3EQsuR-YHrpSeNEuodq-1" vertex="1"><mxGeometry x="370" y="960" width="40" height="20" as="geometry"/></mxCell><mxCell id="k3EQsuR-YHrpSeNEuodq-44" value="&lt;div&gt;move Previously selected piece to current coord:&lt;/div&gt;&lt;div&gt;move()&lt;/div&gt;" style="text;html=1;strokeColor=none;fillColor=none;align=center;verticalAlign=middle;whiteSpace=wrap;rounded=0;" parent="k3EQsuR-YHrpSeNEuodq-1" vertex="1"><mxGeometry x="520" y="1090" width="160" height="20" as="geometry"/></mxCell><mxCell id="k3EQsuR-YHrpSeNEuodq-45" value="" style="endArrow=classic;html=1;" parent="k3EQsuR-YHrpSeNEuodq-1" source="k3EQsuR-YHrpSeNEuodq-40" target="k3EQsuR-YHrpSeNEuodq-41" edge="1"><mxGeometry width="50" height="50" relative="1" as="geometry"><mxPoint x="650" y="1290" as="sourcePoint"/><mxPoint x="700" y="1160" as="targetPoint"/><Array as="points"><mxPoint x="660" y="1050"/></Array></mxGeometry></mxCell><mxCell id="k3EQsuR-YHrpSeNEuodq-46" value="" style="endArrow=classic;html=1;" parent="k3EQsuR-YHrpSeNEuodq-1" edge="1"><mxGeometry width="50" height="50" relative="1" as="geometry"><mxPoint x="500" y="1130" as="sourcePoint"/><mxPoint x="700" y="1130" as="targetPoint"/><Array as="points"><mxPoint x="660.5" y="1130"/></Array></mxGeometry></mxCell><mxCell id="k3EQsuR-YHrpSeNEuodq-47" value="&lt;div&gt;removePreviousHighlight&lt;/div&gt;" style="text;html=1;strokeColor=none;fillColor=none;align=center;verticalAlign=middle;whiteSpace=wrap;rounded=0;" parent="k3EQsuR-YHrpSeNEuodq-1" vertex="1"><mxGeometry x="580" y="1020" width="40" height="20" as="geometry"/></mxCell><mxCell id="k3EQsuR-YHrpSeNEuodq-48" value="Game" style="swimlane;fontStyle=0;childLayout=stackLayout;horizontal=1;startSize=26;fillColor=none;horizontalStack=0;resizeParent=1;resizeParentMax=0;resizeLast=0;collapsible=1;marginBottom=0;" parent="k3EQsuR-YHrpSeNEuodq-1" vertex="1"><mxGeometry x="40" y="340" width="200" height="78" as="geometry"/></mxCell><mxCell id="k3EQsuR-YHrpSeNEuodq-49" value="+ currentlySelectedPiece: Piece" style="text;strokeColor=none;fillColor=none;align=left;verticalAlign=top;spacingLeft=4;spacingRight=4;overflow=hidden;rotatable=0;points=[[0,0.5],[1,0.5]];portConstraint=eastwest;" parent="k3EQsuR-YHrpSeNEuodq-48" vertex="1"><mxGeometry y="26" width="200" height="26" as="geometry"/></mxCell><mxCell id="k3EQsuR-YHrpSeNEuodq-50" value="+ hasMoved: boolean" style="text;strokeColor=none;fillColor=none;align=left;verticalAlign=top;spacingLeft=4;spacingRight=4;overflow=hidden;rotatable=0;points=[[0,0.5],[1,0.5]];portConstraint=eastwest;" parent="k3EQsuR-YHrpSeNEuodq-48" vertex="1"><mxGeometry y="52" width="200" height="26" as="geometry"/></mxCell><mxCell id="k3EQsuR-YHrpSeNEuodq-52" value="move(): must validate if the piece currently selected can be moved to the destiny. If not then clear the highlights and hasMoved to false" style="text;html=1;strokeColor=none;fillColor=none;align=center;verticalAlign=middle;whiteSpace=wrap;rounded=0;" parent="k3EQsuR-YHrpSeNEuodq-1" vertex="1"><mxGeometry x="40" y="1240" width="340" height="20" as="geometry"/></mxCell></root></mxGraphModel></diagram><diagram id="L4dhYd5sTek8-Jt9mjD3" name="PieceFactory"><mxGraphModel dx="879" dy="428" grid="1" gridSize="10" guides="1" tooltips="1" connect="1" arrows="1" fold="1" page="1" pageScale="1" pageWidth="850" pageHeight="1100" math="0" shadow="0"><root><mxCell id="9IAvOKmHkq656t-Ixr-e-0"/><mxCell id="9IAvOKmHkq656t-Ixr-e-1" parent="9IAvOKmHkq656t-Ixr-e-0"/><mxCell id="9IAvOKmHkq656t-Ixr-e-2" value="PieceFactory" style="swimlane;fontStyle=1;align=center;verticalAlign=top;childLayout=stackLayout;horizontal=1;startSize=26;horizontalStack=0;resizeParent=1;resizeParentMax=0;resizeLast=0;collapsible=1;marginBottom=0;" parent="9IAvOKmHkq656t-Ixr-e-1" vertex="1"><mxGeometry x="320" y="230" width="470" height="138" as="geometry"/></mxCell><mxCell id="9IAvOKmHkq656t-Ixr-e-3" value="+ field: type" style="text;strokeColor=none;fillColor=none;align=left;verticalAlign=top;spacingLeft=4;spacingRight=4;overflow=hidden;rotatable=0;points=[[0,0.5],[1,0.5]];portConstraint=eastwest;" parent="9IAvOKmHkq656t-Ixr-e-2" vertex="1"><mxGeometry y="26" width="470" height="26" as="geometry"/></mxCell><mxCell id="9IAvOKmHkq656t-Ixr-e-4" value="" style="line;strokeWidth=1;fillColor=none;align=left;verticalAlign=middle;spacingTop=-1;spacingLeft=3;spacingRight=3;rotatable=0;labelPosition=right;points=[];portConstraint=eastwest;" parent="9IAvOKmHkq656t-Ixr-e-2" vertex="1"><mxGeometry y="52" width="470" height="8" as="geometry"/></mxCell><mxCell id="9IAvOKmHkq656t-Ixr-e-5" value="+PieceFactory(ImageLoader imageLoader): PieceImageLoader" style="text;strokeColor=none;fillColor=none;align=left;verticalAlign=top;spacingLeft=4;spacingRight=4;overflow=hidden;rotatable=0;points=[[0,0.5],[1,0.5]];portConstraint=eastwest;" parent="9IAvOKmHkq656t-Ixr-e-2" vertex="1"><mxGeometry y="60" width="470" height="26" as="geometry"/></mxCell><mxCell id="9IAvOKmHkq656t-Ixr-e-10" value="+getPiece(PieceColor color, PieceName pieceName, Piece promotedFrom): Piece" style="text;strokeColor=none;fillColor=none;align=left;verticalAlign=top;spacingLeft=4;spacingRight=4;overflow=hidden;rotatable=0;points=[[0,0.5],[1,0.5]];portConstraint=eastwest;" parent="9IAvOKmHkq656t-Ixr-e-2" vertex="1"><mxGeometry y="86" width="470" height="26" as="geometry"/></mxCell><mxCell id="9IAvOKmHkq656t-Ixr-e-13" value="+getPiece(PieceColor color, PieceName pieceName):Piece" style="text;strokeColor=none;fillColor=none;align=left;verticalAlign=top;spacingLeft=4;spacingRight=4;overflow=hidden;rotatable=0;points=[[0,0.5],[1,0.5]];portConstraint=eastwest;" parent="9IAvOKmHkq656t-Ixr-e-2" vertex="1"><mxGeometry y="112" width="470" height="26" as="geometry"/></mxCell><mxCell id="9IAvOKmHkq656t-Ixr-e-11" value="" style="shape=note;whiteSpace=wrap;html=1;backgroundOutline=1;darkOpacity=0.05;" parent="9IAvOKmHkq656t-Ixr-e-1" vertex="1"><mxGeometry x="710" y="80" width="80" height="100" as="geometry"/></mxCell><mxCell id="9IAvOKmHkq656t-Ixr-e-12" value="PieceModule provides&amp;nbsp; the factory as Singleton" style="text;html=1;strokeColor=none;fillColor=none;align=center;verticalAlign=middle;whiteSpace=wrap;rounded=0;" parent="9IAvOKmHkq656t-Ixr-e-1" vertex="1"><mxGeometry x="730" y="130" width="40" height="20" as="geometry"/></mxCell></root></mxGraphModel></diagram><diagram id="E9za0uKzzVI14DZXXak2" name="Promotion"><mxGraphModel dx="879" dy="456" grid="1" gridSize="10" guides="1" tooltips="1" connect="1" arrows="1" fold="1" page="1" pageScale="1" pageWidth="850" pageHeight="1100" math="0" shadow="0"><root><mxCell id="aPnCrjNJNNaVZwHs3GKZ-0"/><mxCell id="aPnCrjNJNNaVZwHs3GKZ-1" parent="aPnCrjNJNNaVZwHs3GKZ-0"/><mxCell id="aPnCrjNJNNaVZwHs3GKZ-2" value="«interface»&lt;br&gt;&lt;b&gt;Promotable&lt;br&gt;&lt;/b&gt;" style="html=1;" vertex="1" parent="aPnCrjNJNNaVZwHs3GKZ-1"><mxGeometry x="395" y="210" width="110" height="50" as="geometry"/></mxCell><mxCell id="aPnCrjNJNNaVZwHs3GKZ-3" value="" style="endArrow=block;dashed=1;endFill=0;endSize=12;html=1;entryX=0.5;entryY=1;entryDx=0;entryDy=0;" edge="1" parent="aPnCrjNJNNaVZwHs3GKZ-1" target="aPnCrjNJNNaVZwHs3GKZ-2"><mxGeometry width="160" relative="1" as="geometry"><mxPoint x="450" y="330" as="sourcePoint"/><mxPoint x="515" y="360" as="targetPoint"/></mxGeometry></mxCell><mxCell id="aPnCrjNJNNaVZwHs3GKZ-4" value="Piece" style="swimlane;fontStyle=1;align=center;verticalAlign=top;childLayout=stackLayout;horizontal=1;startSize=26;horizontalStack=0;resizeParent=1;resizeParentMax=0;resizeLast=0;collapsible=1;marginBottom=0;" vertex="1" parent="aPnCrjNJNNaVZwHs3GKZ-1"><mxGeometry x="345" y="330" width="210" height="86" as="geometry"/></mxCell><mxCell id="aPnCrjNJNNaVZwHs3GKZ-5" value="+ game: Game" style="text;strokeColor=none;fillColor=none;align=left;verticalAlign=top;spacingLeft=4;spacingRight=4;overflow=hidden;rotatable=0;points=[[0,0.5],[1,0.5]];portConstraint=eastwest;" vertex="1" parent="aPnCrjNJNNaVZwHs3GKZ-4"><mxGeometry y="26" width="210" height="26" as="geometry"/></mxCell><mxCell id="aPnCrjNJNNaVZwHs3GKZ-6" value="" style="line;strokeWidth=1;fillColor=none;align=left;verticalAlign=middle;spacingTop=-1;spacingLeft=3;spacingRight=3;rotatable=0;labelPosition=right;points=[];portConstraint=eastwest;" vertex="1" parent="aPnCrjNJNNaVZwHs3GKZ-4"><mxGeometry y="52" width="210" height="8" as="geometry"/></mxCell><mxCell id="aPnCrjNJNNaVZwHs3GKZ-7" value="+canPromote(coord: Coord):boolean" style="text;strokeColor=none;fillColor=none;align=left;verticalAlign=top;spacingLeft=4;spacingRight=4;overflow=hidden;rotatable=0;points=[[0,0.5],[1,0.5]];portConstraint=eastwest;" vertex="1" parent="aPnCrjNJNNaVZwHs3GKZ-4"><mxGeometry y="60" width="210" height="26" as="geometry"/></mxCell><mxCell id="aPnCrjNJNNaVZwHs3GKZ-8" value="By default a pice cannot promote" style="shape=note;whiteSpace=wrap;html=1;size=14;verticalAlign=top;align=left;spacingTop=-6;" vertex="1" parent="aPnCrjNJNNaVZwHs3GKZ-1"><mxGeometry x="630" y="330" width="100" height="70" as="geometry"/></mxCell><mxCell id="aPnCrjNJNNaVZwHs3GKZ-13" value="Extends" style="endArrow=block;endSize=16;endFill=0;html=1;entryX=0.51;entryY=1.115;entryDx=0;entryDy=0;entryPerimeter=0;" edge="1" parent="aPnCrjNJNNaVZwHs3GKZ-1" target="aPnCrjNJNNaVZwHs3GKZ-7"><mxGeometry width="160" relative="1" as="geometry"><mxPoint x="452" y="520" as="sourcePoint"/><mxPoint x="480" y="440" as="targetPoint"/></mxGeometry></mxCell><mxCell id="aPnCrjNJNNaVZwHs3GKZ-9" value="Pawn&#10;" style="swimlane;fontStyle=1;align=center;verticalAlign=top;childLayout=stackLayout;horizontal=1;startSize=26;horizontalStack=0;resizeParent=1;resizeParentMax=0;resizeLast=0;collapsible=1;marginBottom=0;" vertex="1" parent="aPnCrjNJNNaVZwHs3GKZ-1"><mxGeometry x="350" y="520" width="200" height="86" as="geometry"/></mxCell><mxCell id="aPnCrjNJNNaVZwHs3GKZ-10" value="+ field: type" style="text;strokeColor=none;fillColor=none;align=left;verticalAlign=top;spacingLeft=4;spacingRight=4;overflow=hidden;rotatable=0;points=[[0,0.5],[1,0.5]];portConstraint=eastwest;" vertex="1" parent="aPnCrjNJNNaVZwHs3GKZ-9"><mxGeometry y="26" width="200" height="26" as="geometry"/></mxCell><mxCell id="aPnCrjNJNNaVZwHs3GKZ-11" value="" style="line;strokeWidth=1;fillColor=none;align=left;verticalAlign=middle;spacingTop=-1;spacingLeft=3;spacingRight=3;rotatable=0;labelPosition=right;points=[];portConstraint=eastwest;" vertex="1" parent="aPnCrjNJNNaVZwHs3GKZ-9"><mxGeometry y="52" width="200" height="8" as="geometry"/></mxCell><mxCell id="aPnCrjNJNNaVZwHs3GKZ-12" value="+ canPromote(coord: Coord): tboolean" style="text;strokeColor=none;fillColor=none;align=left;verticalAlign=top;spacingLeft=4;spacingRight=4;overflow=hidden;rotatable=0;points=[[0,0.5],[1,0.5]];portConstraint=eastwest;" vertex="1" parent="aPnCrjNJNNaVZwHs3GKZ-9"><mxGeometry y="60" width="200" height="26" as="geometry"/></mxCell><mxCell id="aPnCrjNJNNaVZwHs3GKZ-18" value="" style="endArrow=block;startArrow=block;endFill=1;startFill=1;html=1;exitX=0.5;exitY=1;exitDx=0;exitDy=0;exitPerimeter=0;entryX=0.5;entryY=0;entryDx=0;entryDy=0;" edge="1" parent="aPnCrjNJNNaVZwHs3GKZ-1" source="aPnCrjNJNNaVZwHs3GKZ-17" target="aPnCrjNJNNaVZwHs3GKZ-19"><mxGeometry width="160" relative="1" as="geometry"><mxPoint x="150" y="290" as="sourcePoint"/><mxPoint x="310" y="290" as="targetPoint"/></mxGeometry></mxCell><mxCell id="aPnCrjNJNNaVZwHs3GKZ-24" value="1" style="endArrow=open;html=1;endSize=12;startArrow=diamondThin;startSize=14;startFill=0;edgeStyle=orthogonalEdgeStyle;align=left;verticalAlign=bottom;entryX=0;entryY=0.5;entryDx=0;entryDy=0;exitX=1;exitY=0.5;exitDx=0;exitDy=0;" edge="1" parent="aPnCrjNJNNaVZwHs3GKZ-1" source="aPnCrjNJNNaVZwHs3GKZ-20" target="aPnCrjNJNNaVZwHs3GKZ-7"><mxGeometry x="-1" y="3" relative="1" as="geometry"><mxPoint x="230" y="372.5" as="sourcePoint"/><mxPoint x="390" y="372.5" as="targetPoint"/></mxGeometry></mxCell><mxCell id="aPnCrjNJNNaVZwHs3GKZ-19" value="Board" style="swimlane;fontStyle=1;align=center;verticalAlign=top;childLayout=stackLayout;horizontal=1;startSize=26;horizontalStack=0;resizeParent=1;resizeParentMax=0;resizeLast=0;collapsible=1;marginBottom=0;" vertex="1" parent="aPnCrjNJNNaVZwHs3GKZ-1"><mxGeometry x="70" y="310" width="160" height="86" as="geometry"/></mxCell><mxCell id="aPnCrjNJNNaVZwHs3GKZ-20" value="+ field: type" style="text;strokeColor=none;fillColor=none;align=left;verticalAlign=top;spacingLeft=4;spacingRight=4;overflow=hidden;rotatable=0;points=[[0,0.5],[1,0.5]];portConstraint=eastwest;" vertex="1" parent="aPnCrjNJNNaVZwHs3GKZ-19"><mxGeometry y="26" width="160" height="26" as="geometry"/></mxCell><mxCell id="aPnCrjNJNNaVZwHs3GKZ-21" value="" style="line;strokeWidth=1;fillColor=none;align=left;verticalAlign=middle;spacingTop=-1;spacingLeft=3;spacingRight=3;rotatable=0;labelPosition=right;points=[];portConstraint=eastwest;" vertex="1" parent="aPnCrjNJNNaVZwHs3GKZ-19"><mxGeometry y="52" width="160" height="8" as="geometry"/></mxCell><mxCell id="aPnCrjNJNNaVZwHs3GKZ-22" value="+ method(type): type" style="text;strokeColor=none;fillColor=none;align=left;verticalAlign=top;spacingLeft=4;spacingRight=4;overflow=hidden;rotatable=0;points=[[0,0.5],[1,0.5]];portConstraint=eastwest;" vertex="1" parent="aPnCrjNJNNaVZwHs3GKZ-19"><mxGeometry y="60" width="160" height="26" as="geometry"/></mxCell><mxCell id="aPnCrjNJNNaVZwHs3GKZ-14" value="Game" style="swimlane;fontStyle=1;align=center;verticalAlign=top;childLayout=stackLayout;horizontal=1;startSize=26;horizontalStack=0;resizeParent=1;resizeParentMax=0;resizeLast=0;collapsible=1;marginBottom=0;" vertex="1" parent="aPnCrjNJNNaVZwHs3GKZ-1"><mxGeometry x="70" y="200" width="160" height="60" as="geometry"/></mxCell><mxCell id="aPnCrjNJNNaVZwHs3GKZ-16" value="" style="line;strokeWidth=1;fillColor=none;align=left;verticalAlign=middle;spacingTop=-1;spacingLeft=3;spacingRight=3;rotatable=0;labelPosition=right;points=[];portConstraint=eastwest;" vertex="1" parent="aPnCrjNJNNaVZwHs3GKZ-14"><mxGeometry y="26" width="160" height="8" as="geometry"/></mxCell><mxCell id="aPnCrjNJNNaVZwHs3GKZ-17" value="+handlePromotion():  void" style="text;strokeColor=none;fillColor=none;align=left;verticalAlign=top;spacingLeft=4;spacingRight=4;overflow=hidden;rotatable=0;points=[[0,0.5],[1,0.5]];portConstraint=eastwest;" vertex="1" parent="aPnCrjNJNNaVZwHs3GKZ-14"><mxGeometry y="34" width="160" height="26" as="geometry"/></mxCell><mxCell id="aPnCrjNJNNaVZwHs3GKZ-26" value="«interface»&lt;br&gt;&lt;b&gt;HandlePromotion&lt;br&gt;&lt;/b&gt;" style="html=1;" vertex="1" parent="aPnCrjNJNNaVZwHs3GKZ-1"><mxGeometry x="95" y="60" width="110" height="50" as="geometry"/></mxCell><mxCell id="aPnCrjNJNNaVZwHs3GKZ-27" value="" style="endArrow=block;dashed=1;endFill=0;endSize=12;html=1;entryX=0.5;entryY=1;entryDx=0;entryDy=0;exitX=0.5;exitY=0;exitDx=0;exitDy=0;" edge="1" parent="aPnCrjNJNNaVZwHs3GKZ-1" source="aPnCrjNJNNaVZwHs3GKZ-14" target="aPnCrjNJNNaVZwHs3GKZ-26"><mxGeometry width="160" relative="1" as="geometry"><mxPoint x="149.5" y="190" as="sourcePoint"/><mxPoint x="149.5" y="120" as="targetPoint"/></mxGeometry></mxCell></root></mxGraphModel></diagram></mxfile>